<svg xmlns="http://www.w3.org/2000/svg" width="1024" height="768"><rect x="-.5" opacity=".1" fill="#0A0D19" width="1024" height="768"/><polygon fill="#0A0D23" points="151.88,381.725 298.478,246.513 461.11,344.68 694.067,137.793 873.312,308.325 873.312,519.551 151.88,519.551" opacity=".08"/><path opacity=".1" fill="#0A0D19" d="M1020 4v760h-1016v-760h1016m4-4h-1024v768h1024v-768z"/><g opacity=".15" fill="#0A0D19"><path d="M381.735 586.908c3.641 0 6.498 1.75 8.249 3.732l-2.166 2.441c-1.566-1.705-3.502-2.811-6.037-2.811-5.76 0-9.539 4.701-9.539 12.211 0 7.604 3.64 12.396 9.354 12.396 2.903 0 5.023-1.197 6.958-3.363l2.166 2.35c-2.396 2.766-5.345 4.377-9.216 4.377-7.604 0-13.225-5.805-13.225-15.668 0-9.721 5.714-15.665 13.456-15.665zM395.973 584.879h3.779v28.572c0 1.197.507 1.658 1.06 1.658.23 0 .415 0 .83-.092l.507 2.857c-.507.23-1.152.367-2.166.367-2.857 0-4.009-1.797-4.009-5.068v-28.294zM407.032 588.244c0-1.475 1.152-2.443 2.626-2.443s2.627.969 2.627 2.443c0 1.428-1.152 2.441-2.627 2.441s-2.626-1.013-2.626-2.441zm.691 7.051h3.779v22.395h-3.779v-22.395zM428.182 594.742c2.949 0 5.023 1.244 6.543 2.672l-1.889 2.441c-1.336-1.15-2.719-1.98-4.516-1.98-4.055 0-7.004 3.502-7.004 8.664 0 5.113 2.811 8.57 6.912 8.57 2.12 0 3.917-1.061 5.253-2.258l1.705 2.488c-2.027 1.797-4.608 2.902-7.281 2.902-5.945 0-10.507-4.285-10.507-11.703.001-7.511 5.024-11.796 10.784-11.796zM440.07 584.879h3.732v22.213h.138l9.539-11.797h4.193l-7.511 8.984 8.525 13.41h-4.147l-6.544-10.783-4.193 4.885v5.898h-3.732v-32.81zM472.833 598.381h-3.318v-2.855l3.502-.23.46-6.268h3.18v6.268h6.037v3.086h-6.037v12.443c0 2.764.875 4.332 3.456 4.332.784 0 1.797-.324 2.535-.6l.737 2.857c-1.244.414-2.765.828-4.147.828-4.792 0-6.405-3.041-6.405-7.465v-12.396zM496.012 594.742c5.483 0 10.368 4.285 10.368 11.797 0 7.418-4.885 11.703-10.368 11.703-5.484 0-10.369-4.285-10.369-11.703 0-7.512 4.885-11.797 10.369-11.797zm0 20.367c3.871 0 6.451-3.457 6.451-8.57 0-5.162-2.581-8.664-6.451-8.664-3.825 0-6.452 3.502-6.452 8.664 0 5.113 2.627 8.57 6.452 8.57zM530.709 594.742c2.949 0 5.022 1.244 6.543 2.672l-1.89 2.441c-1.336-1.15-2.719-1.98-4.516-1.98-4.055 0-7.004 3.502-7.004 8.664 0 5.113 2.811 8.57 6.912 8.57 2.119 0 3.917-1.061 5.253-2.258l1.705 2.488c-2.027 1.797-4.608 2.902-7.281 2.902-5.944 0-10.506-4.285-10.506-11.703.001-7.511 5.023-11.796 10.784-11.796zM542.596 584.879h3.779v8.941l-.139 4.607c2.12-2.027 4.378-3.686 7.466-3.686 4.7 0 6.819 3.041 6.819 8.754v14.193h-3.778v-13.686c0-4.193-1.29-5.99-4.239-5.99-2.305 0-3.871 1.197-6.129 3.455v16.221h-3.779v-32.809zM580.336 603.496c0-2.855-.968-5.621-4.608-5.621-2.626 0-4.931 1.197-6.682 2.396l-1.521-2.627c2.073-1.336 5.207-2.902 8.802-2.902 5.483 0 7.787 3.639 7.787 9.215v13.732h-3.133l-.323-2.672h-.092c-2.166 1.75-4.654 3.225-7.419 3.225-3.779 0-6.59-2.35-6.59-6.359.001-4.885 4.24-7.326 13.779-8.387zm-6.129 11.705c2.166 0 3.963-1.059 6.129-2.994v-6.223c-7.512.922-10.046 2.766-10.046 5.623 0 2.536 1.705 3.594 3.917 3.594zM591.256 595.295h3.134l.322 3.225h.139c2.12-2.119 4.424-3.777 7.512-3.777 4.7 0 6.819 3.041 6.819 8.754v14.193h-3.778v-13.686c0-4.193-1.29-5.99-4.239-5.99-2.305 0-3.871 1.197-6.129 3.455v16.221h-3.779v-22.395zM618.029 616.906v-.184c-1.106-.691-1.981-1.891-1.981-3.641 0-1.889 1.29-3.363 2.442-4.148v-.184c-1.475-1.197-2.903-3.363-2.903-6.037 0-4.885 3.871-7.971 8.433-7.971 1.244 0 2.351.23 3.18.553h7.788v2.902h-4.608c1.06 1.014 1.844 2.719 1.844 4.607 0 4.793-3.641 7.789-8.203 7.789-1.105 0-2.35-.277-3.364-.783-.783.691-1.428 1.428-1.428 2.672 0 1.43.921 2.443 3.963 2.443h4.331c5.208 0 7.834 1.611 7.834 5.344 0 4.148-4.378 7.742-11.336 7.742-5.483 0-9.263-2.166-9.263-6.037-.001-1.887 1.244-3.684 3.271-5.067zm6.543 8.479c4.286 0 7.097-2.211 7.097-4.561 0-2.074-1.612-2.766-4.516-2.766h-3.871c-.875 0-1.936-.092-2.903-.369-1.612 1.152-2.304 2.488-2.304 3.779 0 2.397 2.443 3.917 6.497 3.917zm4.194-22.672c0-3.271-2.119-5.207-4.746-5.207s-4.746 1.936-4.746 5.207 2.166 5.346 4.746 5.346c2.581 0 4.746-2.075 4.746-5.346zM647.43 594.742c5.714 0 8.939 4.1 8.939 10.506 0 .783-.046 1.521-.139 2.074h-15.114c.276 4.838 3.18 7.879 7.465 7.879 2.12 0 3.917-.691 5.576-1.75l1.336 2.488c-1.936 1.244-4.331 2.303-7.373 2.303-5.99 0-10.736-4.377-10.736-11.703 0-7.328 4.93-11.797 10.046-11.797zm5.621 10.092c0-4.562-2.027-7.098-5.529-7.098-3.134 0-5.99 2.58-6.451 7.098h11.98z"/></g></svg>